<svg xmlns="http://www.w3.org/2000/svg" viewBox="0 0 249.53 58.94"><defs><style>.cls-1{fill:#2c2c2c;}</style></defs><g id="Capa_2" data-name="Capa 2"><g id="Capa_10" data-name="Capa 10"><path class="cls-1" d="M23.31,0c3,0,6.28.18,10,.53a44,44,0,0,1,4.91.75,6.52,6.52,0,0,1,5.21,7h0a6.5,6.5,0,0,1-6.54,5.91l-3.17,0q-5.46,0-10.8,0c-1,0-1.9,0-2.58.08a5.48,5.48,0,0,0-1.6.33,1.59,1.59,0,0,0-.82.66,2,2,0,0,0-.25,1.07,2.33,2.33,0,0,0,1,1.92,18.09,18.09,0,0,0,3.9,1.93l10.26,4.27q7,3,9.89,7a17.22,17.22,0,0,1,2.83,10.22,24.82,24.82,0,0,1-1.15,8.09A11,11,0,0,1,40.6,55a17.78,17.78,0,0,1-7.11,3,54.39,54.39,0,0,1-11.08.94c-1.91,0-4.82-.15-8.7-.45a66.8,66.8,0,0,1-7.17-1A6.89,6.89,0,0,1,1,50.13H1a6.92,6.92,0,0,1,7.07-6.32l2.51.07c2.74.08,5.1.14,7.1.16s3.49,0,4.48,0a27.44,27.44,0,0,0,3.48-.16,2.87,2.87,0,0,0,1.65-.62,1.6,1.6,0,0,0,.45-1.19,2.55,2.55,0,0,0-.33-1.35,3.28,3.28,0,0,0-1.15-1,14.49,14.49,0,0,0-2.38-1.06L12.64,33.74q-6.88-3.12-9.77-7T0,16.67A21.92,21.92,0,0,1,1.27,8.62a11,11,0,0,1,4-5.09A18.29,18.29,0,0,1,12.44.82,61.12,61.12,0,0,1,23.31,0Z"/><path class="cls-1" d="M75.85.33Q84.88.33,90,2A11.85,11.85,0,0,1,97.2,7.88q2.13,4.19,2.13,11.74t-2,11.62a11.38,11.38,0,0,1-6.61,5.83q-4.59,1.68-12.39,1.68a75.15,75.15,0,0,1-8.21-.45c-2.74-.3-5.3-.69-7.68-1.15a62.08,62.08,0,0,1-6.11-1.48,14.8,14.8,0,0,1-3.54-1.44l.25-8H75.44a10.33,10.33,0,0,0,3.78-.54,3.09,3.09,0,0,0,1.81-2,13.3,13.3,0,0,0,.49-4.06A14.17,14.17,0,0,0,81,15.43a3.14,3.14,0,0,0-1.81-2,10.59,10.59,0,0,0-3.78-.53q-8.37,0-14.28.08c-3.94.06-6.62.16-8,.33L52.58,8A6.74,6.74,0,0,1,58.92.58H59q3.33-.15,7.27-.2T75.85.33Zm-6.15.82V48.89a8.9,8.9,0,0,1-8.91,8.9h0a8.9,8.9,0,0,1-8.91-8.9v-41a6.77,6.77,0,0,1,6.77-6.76Z"/><path class="cls-1" d="M181.92.16c3,0,5.47.09,7.55.25s4,.4,5.71.7l.19,0A5.8,5.8,0,0,1,200,7.45L199.78,10A5.84,5.84,0,0,1,194,15.27h0c-1.64,0-3.39,0-5.25,0s-4.11,0-6.73,0a6.8,6.8,0,0,0-4.31,1.19,6.75,6.75,0,0,0-2.09,4.27,50.44,50.44,0,0,0-.58,8.82,50.64,50.64,0,0,0,.58,8.83,6.74,6.74,0,0,0,2.09,4.26,6.8,6.8,0,0,0,4.31,1.2c4.1,0,7.54,0,10.3-.13.92,0,1.84-.06,2.76-.11a5.84,5.84,0,0,1,6.07,5.26l.24,2.44a5.78,5.78,0,0,1-4.43,6.25c-1.26.29-2.53.52-3.82.69a83.68,83.68,0,0,1-11.12.62q-9.36,0-15-2.83a16.67,16.67,0,0,1-8.16-9.24q-2.5-6.41-2.51-17.24t2.51-17.24A16.61,16.61,0,0,1,166.89,3Q172.56.17,181.92.16Z"/><path class="cls-1" d="M220.42.82q4.92,0,10.14,0t10.22.25c1.11,0,2.2.1,3.24.18a5.91,5.91,0,0,1,5.5,6.28l-.09,1.35a5.91,5.91,0,0,1-5.9,5.53H228.3a3.5,3.5,0,0,0-2.46.82,2.72,2.72,0,0,0-.9,2.13V41.54a2.7,2.7,0,0,0,.9,2.13,3.5,3.5,0,0,0,2.46.82h15.23a5.91,5.91,0,0,1,5.9,5.53l.09,1.3A5.91,5.91,0,0,1,244,57.6c-1,.07-2.13.14-3.24.19-3.34.17-6.75.26-10.22.29s-6.86,0-10.14,0a13.26,13.26,0,0,1-9.56-3.57,12.28,12.28,0,0,1-3.74-9.32V13.71a12.28,12.28,0,0,1,3.74-9.32A13.26,13.26,0,0,1,220.42.82ZM208.6,22.9h31.6a5.91,5.91,0,0,1,5.91,5.91h0a5.91,5.91,0,0,1-5.91,5.92H208.6Z"/><path class="cls-1" d="M115.71,57.79h0A13.73,13.73,0,0,1,102.5,40.33l9.76-34.58a6,6,0,0,1,2.22-3.37,6.11,6.11,0,0,1,3.77-1.23h16.18a6.11,6.11,0,0,1,3.77,1.23,6,6,0,0,1,2.22,3.37l9.77,34.58A13.73,13.73,0,0,1,137,57.79h0M126.26,9c-.29,20.32-.53,20.56-20.85,20.86,20.32.29,20.56.53,20.85,20.85.3-20.32.54-20.56,20.86-20.85C126.8,29.6,126.56,29.36,126.26,9Zm-3.63,44.14-6.92,4.61H137l-7.05-4.64A6.61,6.61,0,0,0,122.63,53.18Z"/></g></g></svg>